<?xml version="1.0" encoding="UTF-8"?>
<svg id="Camada_1" data-name="Camada 1" xmlns="http://www.w3.org/2000/svg" viewBox="0 0 31.56 31.8">
  <defs>
    <style>
      .cls-1 {
        fill: #1f944e;
      }

      .cls-2 {
        fill: #fbf5ec;
      }

      .cls-3 {
        fill: #19954c;
      }
    </style>
  </defs>
  <ellipse class="cls-3" cx="15.78" cy="15.9" rx="15.78" ry="15.9"/>
  <ellipse class="cls-2" cx="15.78" cy="15.97" rx="14.03" ry="14.24"/>
  <path class="cls-1" d="M11.86,23.14c-.07-.03-.13-.07-.19-.11h-4.08c-.06.05-.13.08-.2.12-.02.05-.04.09-.07.14v5.02c1.1.17,1.96.65,2.6,1.33.78.2,1.44.55,1.95,1.03v-7.47s0-.04-.01-.05Z"/>
  <path class="cls-1" d="M17.88,17.91c-.06-.02-.12-.05-.18-.08h-4.2s-.06.04-.1.06c-.01.04-.02.07-.03.11v13.33h4.56v-13.29s-.03-.09-.04-.13Z"/>
  <path class="cls-1" d="M24,15.35h-4.22s-.01.01-.02.02c-.04.07-.09.14-.15.21v14.63h2.33c.21-.17.44-.33.69-.46.06-.04.1-.09.16-.12,0,0,.01-.01.02-.02.02,0,.03-.02.05-.03.06-.04.1-.09.16-.12.05-.03.09-.07.14-.1.02-.02.03-.03.05-.05.28-.29.59-.55.95-.75v-13.01c-.06-.07-.11-.13-.17-.2Z"/>
  <polygon class="cls-1" points="7.46 19.6 7.95 19.6 14.42 13.54 16.88 15.77 17.18 15.87 21.66 11.52 21.83 11.52 22.93 12.7 23.16 12.66 23.16 12.57 23.29 12.43 23.79 7.71 19.09 8.5 18.98 8.59 19.01 8.76 19.11 8.95 20.14 9.9 20.18 10.02 20.16 10.13 17.12 12.98 17.03 13.03 16.93 13.07 16.82 13.03 14.31 10.71 6.26 18.25 7.46 19.6"/>
</svg>